<?xml version="1.0" standalone="no"?>
<!DOCTYPE svg PUBLIC "-//W3C//DTD SVG 20010904//EN"
 "http://www.w3.org/TR/2001/REC-SVG-20010904/DTD/svg10.dtd">
<svg version="1.0" xmlns="http://www.w3.org/2000/svg"
 width="640.000000pt" height="360.000000pt" viewBox="0 0 640.000000 360.000000"
 preserveAspectRatio="xMidYMid meet">
<metadata>
Created by potrace 1.16, written by Peter Selinger 2001-2019
</metadata>
<g transform="translate(0.000000,360.000000) scale(0.100000,-0.100000)"
fill="#000000" stroke="none">
<path d="M224 3512 c-23 -20 -53 -69 -35 -58 6 4 11 1 11 -6 0 -10 2 -10 9 1
6 9 19 11 42 7 31 -5 32 -5 9 5 -14 5 -33 8 -42 5 -18 -4 -25 9 -10 18 5 3 69
-15 143 -39 74 -25 123 -45 110 -45 -13 0 -21 -3 -18 -6 3 -4 42 -6 87 -6 64
1 80 -1 80 -13 0 -11 -12 -15 -44 -15 -25 0 -47 -4 -51 -9 -10 -17 10 -20 54
-10 24 5 45 8 47 7 1 -2 -11 -36 -28 -76 l-30 -72 -37 6 c-34 5 -40 2 -69 -30
-28 -32 -32 -44 -32 -92 0 -48 4 -59 30 -85 24 -24 28 -36 23 -59 -6 -33 5
-37 57 -20 23 7 21 8 -12 9 -31 1 -35 4 -31 21 3 11 11 20 19 20 7 0 16 4 19
10 8 13 -19 52 -29 43 -4 -4 -11 -1 -16 7 -7 11 -10 11 -10 2 0 -7 11 -17 25
-24 13 -6 22 -14 20 -19 -8 -12 -42 1 -65 26 -19 21 -22 32 -18 81 4 47 10 62
32 81 33 28 56 29 87 3 l24 -19 -37 -1 c-28 0 -41 -6 -52 -22 -20 -32 -30 -88
-17 -88 6 0 11 11 11 24 0 43 18 76 40 76 23 0 22 -9 -6 -77 -7 -18 -9 -33 -3
-33 5 0 9 7 9 15 0 8 3 15 8 15 4 0 8 12 8 26 1 14 12 36 23 48 12 13 19 30
16 38 -3 8 10 52 30 98 19 47 35 92 35 102 0 20 -36 43 -44 29 -4 -5 -29 -7
-58 -4 -62 6 -294 79 -304 95 -5 8 0 9 17 3 13 -4 36 -8 52 -8 15 0 27 -4 27
-10 0 -5 6 -7 14 -4 8 3 16 2 18 -3 2 -6 9 -6 17 -1 10 7 -5 15 -53 30 -81 25
-76 25 -102 3z"/>
<path d="M425 3330 c-51 -20 -104 -64 -138 -114 -15 -21 -22 -25 -32 -16 -10
8 -19 8 -35 0 -30 -16 -24 -71 8 -85 21 -9 23 -15 18 -60 -3 -27 -3 -42 0 -32
3 9 23 26 44 37 21 11 46 30 54 42 17 24 22 83 7 92 -4 3 -6 -6 -3 -19 7 -41
-6 -72 -42 -94 -37 -24 -46 -26 -46 -11 0 6 9 10 19 10 11 0 27 10 35 22 24
33 19 43 -6 16 -13 -13 -20 -19 -15 -14 4 6 7 19 6 31 0 19 -1 19 -9 -2 -10
-25 -30 -31 -30 -10 1 46 30 76 44 45 4 -7 4 -3 2 10 -6 31 10 28 22 -5 6 -16
11 -22 11 -15 1 7 -3 21 -9 31 -7 15 -2 27 23 56 18 21 32 41 32 46 0 15 15
22 45 21 16 0 30 4 30 9 0 5 5 8 11 7 6 -2 14 3 16 10 6 16 -2 15 -62 -8z"/>
<path d="M1011 3233 c-1 -27 -6 -33 -36 -43 -26 -9 -39 -9 -49 -1 -18 16 -46
3 -46 -21 0 -13 -14 -25 -42 -38 -64 -29 -72 -27 -65 20 4 28 1 45 -10 55 -8
8 -11 20 -8 26 4 6 -2 5 -13 -2 -22 -14 -42 -50 -42 -75 0 -8 -10 -19 -22 -24
-19 -7 -19 -9 -5 -9 10 -1 15 -6 12 -11 -4 -6 -11 -8 -16 -5 -5 3 -6 -1 -3 -9
5 -12 0 -16 -17 -16 -20 0 -21 2 -9 11 12 8 10 9 -7 4 -13 -4 -23 -2 -23 4 0
5 8 12 18 14 10 3 7 5 -10 6 -29 1 -52 -26 -40 -46 9 -14 57 -33 80 -32 9 0 1
5 -18 11 -41 12 -62 27 -54 39 3 5 12 2 20 -6 9 -8 28 -15 44 -15 22 0 31 7
44 34 9 19 16 39 16 45 0 6 5 11 10 11 16 0 12 -23 -14 -73 -20 -41 -21 -47
-7 -47 9 0 24 -9 34 -20 17 -20 17 -20 85 14 37 20 94 47 126 61 33 14 57 28
54 31 -4 3 -14 1 -25 -4 -128 -65 -216 -103 -228 -98 -24 9 -29 34 -14 79 10
32 14 37 17 20 5 -32 24 -34 82 -7 37 17 56 21 65 14 9 -7 16 -6 25 5 11 13
10 15 -6 10 -11 -4 -8 0 6 8 14 8 35 18 48 21 18 6 22 3 23 -16 1 -20 2 -20 6
-3 2 11 9 29 14 41 6 12 9 32 6 45 -3 20 -5 18 -6 -8z"/>
<path d="M5959 3144 c-13 -14 -17 -24 -10 -24 7 0 9 -5 6 -10 -4 -6 -11 -8
-16 -4 -15 9 -112 -104 -114 -132 -1 -21 14 -34 86 -80 47 -30 107 -76 132
-103 41 -44 48 -47 68 -37 22 11 72 70 126 148 l25 37 -22 35 c-12 20 -34 45
-50 56 -20 14 -27 26 -23 40 6 22 -20 29 -32 9 -4 -6 -27 9 -55 35 -27 26 -53
46 -57 47 -4 0 -16 2 -25 4 -9 2 -27 -8 -39 -21z m98 -21 c60 -44 60 -56 2
-134 -39 -53 -57 -69 -71 -66 -10 3 -18 1 -18 -4 0 -5 7 -9 15 -9 8 0 15 -4
15 -9 0 -23 -18 -17 -53 18 -21 21 -53 47 -72 57 -39 21 -41 39 -5 39 28 0
101 90 93 114 -4 13 -3 13 5 2 8 -11 12 -10 23 7 14 22 17 22 66 -15z m148
-118 c19 -20 35 -39 35 -44 0 -5 -9 -20 -21 -35 -25 -32 -15 -35 13 -3 l19 22
-18 -33 c-9 -18 -23 -30 -30 -28 -18 7 -74 -65 -67 -86 8 -25 -30 -43 -47 -21
-8 9 -14 19 -13 22 0 3 -18 21 -42 39 -37 29 -41 36 -31 53 7 11 14 14 18 7 4
-6 28 13 59 45 34 36 58 54 69 50 12 -4 13 -3 2 5 -9 7 -10 12 -2 16 6 4 9 12
6 17 -14 22 18 6 50 -26z"/>
<path d="M5406 3019 c-15 -14 -35 -19 -85 -21 l-66 -2 59 -3 c32 -2 66 -1 75
3 43 18 118 21 134 5 17 -17 17 -41 -1 -49 -21 -11 -112 -3 -112 9 0 17 44 31
79 25 25 -4 31 -2 21 4 -32 20 -110 1 -110 -27 0 -7 -3 -12 -7 -12 -24 4 -85
-2 -80 -8 4 -3 23 -6 42 -5 26 1 34 -2 28 -11 -4 -7 0 -7 10 2 15 12 20 11 35
-3 21 -18 74 -21 103 -6 28 15 25 -11 -4 -38 -27 -26 -73 -29 -105 -6 -12 8
-22 11 -22 6 0 -13 47 -32 83 -33 27 0 29 -2 12 -9 -28 -12 -2 -12 29 0 16 6
26 17 26 30 0 11 5 20 10 20 6 0 10 -9 10 -20 0 -11 4 -20 9 -20 5 0 7 13 5
29 -5 29 16 48 37 35 5 -3 1 10 -10 29 -11 19 -17 38 -13 43 4 4 1 4 -6 0 -8
-5 -21 0 -33 13 -11 12 -24 19 -30 16 -5 -4 -12 1 -15 9 -9 24 -84 20 -108 -5z"/>
<path d="M886 2973 c-12 -57 -14 -103 -5 -98 5 4 9 1 9 -4 0 -6 -6 -11 -12
-11 -7 0 6 -9 30 -20 24 -11 41 -24 37 -29 -3 -6 -28 -22 -55 -37 -28 -15 -50
-30 -50 -34 0 -4 9 -18 21 -31 l20 -24 -15 26 c-18 28 -11 45 11 27 11 -8 12
-7 7 6 -7 19 7 21 25 4 10 -11 11 -9 5 7 -7 18 -6 18 9 7 8 -8 14 -19 11 -26
-8 -20 24 -40 75 -46 l46 -6 -35 -11 c-19 -6 -27 -12 -17 -12 10 -1 27 4 38
10 11 5 30 9 42 7 21 -3 20 -5 -8 -20 -16 -10 -25 -17 -18 -18 7 0 25 11 40
25 28 24 28 24 5 25 -32 0 -63 17 -89 48 -21 25 -22 25 -20 5 0 -12 10 -25 22
-29 19 -6 19 -7 -3 -11 -28 -6 -81 25 -62 37 8 5 8 9 -4 13 -19 7 -22 37 -3
38 6 0 21 3 32 6 11 3 40 7 65 8 44 2 62 16 39 31 -8 4 -9 3 -5 -4 4 -7 2 -12
-3 -12 -6 0 -11 6 -11 14 0 7 -9 25 -20 38 -10 14 -16 28 -13 32 3 3 1 6 -5 6
-7 0 -12 -9 -12 -20 0 -28 -21 -70 -36 -70 -6 0 -26 16 -43 35 -17 19 -34 35
-38 34 -4 0 -9 5 -12 12 -2 6 0 9 5 6 5 -3 10 17 11 44 1 55 -3 63 -11 22z"/>
<path d="M4247 2668 c-8 -13 -17 -42 -21 -64 -4 -27 -32 -83 -83 -163 -88
-140 -73 -142 -129 19 -16 47 -32 86 -35 88 -4 2 -5 11 -2 22 7 25 -39 70 -71
70 -15 0 -30 -8 -36 -20 -8 -15 -8 -20 2 -20 9 0 10 -2 1 -8 -11 -7 -19 -51
-28 -157 -2 -33 -11 -109 -19 -169 -17 -131 -12 -156 37 -156 42 0 57 15 57
56 0 18 6 35 13 37 7 3 7 6 1 6 -7 1 -9 16 -4 46 5 34 4 45 -7 45 -7 0 -13 4
-13 9 0 5 7 8 16 7 10 -2 27 -30 44 -72 15 -38 33 -81 40 -97 39 -81 142 -9
125 88 -3 19 -2 25 4 16 6 -9 21 9 52 65 l43 79 9 -40 c16 -72 22 -179 13
-218 -10 -43 1 -60 45 -71 65 -15 83 53 63 235 -17 147 -17 152 -1 143 8 -5 7
-2 -2 10 -10 12 -14 42 -13 99 1 101 -2 111 -34 125 -34 16 -42 15 -18 -3 10
-8 14 -15 7 -15 -6 0 -18 7 -27 15 -14 14 -17 13 -29 -7z"/>
<path d="M1190 2671 c-32 -9 -55 -53 -41 -79 6 -11 8 -74 6 -148 -3 -128 16
-288 44 -356 21 -54 111 -46 111 9 -1 16 -7 39 -15 53 -8 14 -14 37 -15 52 0
20 4 25 18 21 19 -4 216 81 240 104 6 6 21 15 32 18 11 3 20 10 20 15 0 4 9
10 19 13 16 4 20 16 23 77 3 69 -3 93 -17 70 -4 -7 -19 1 -37 20 -25 27 -29
37 -24 64 6 32 5 34 -39 51 -26 9 -48 15 -50 13 -2 -2 -6 -23 -7 -46 -3 -44
-11 -54 -22 -26 -8 22 -8 26 4 19 6 -4 10 6 10 23 0 22 -6 31 -22 36 -31 8
-206 6 -238 -3z m229 -105 c37 -8 89 -25 115 -37 l48 -21 -27 -28 c-46 -48
-269 -170 -284 -155 -3 4 -5 54 -3 111 1 65 -2 104 -8 104 -19 0 -10 15 15 27
14 6 35 9 46 6 20 -6 21 -3 16 23 -6 26 -5 27 5 7 8 -16 28 -26 77 -37z"/>
<path d="M2250 2643 c-46 -40 -103 -120 -94 -134 3 -5 1 -9 -4 -9 -12 0 -50
-131 -55 -189 -10 -104 36 -190 121 -228 58 -26 86 -29 79 -10 -2 6 -10 11
-16 9 -6 -1 -11 3 -11 9 0 6 7 8 16 5 9 -3 18 -6 20 -6 2 0 4 -7 4 -15 0 -37
154 31 213 94 l44 47 6 129 c3 72 9 144 13 162 5 25 2 35 -15 49 -12 10 -21
24 -21 30 0 31 -38 56 -114 74 -113 29 -135 27 -186 -17z m188 -74 c54 -26 72
-64 72 -146 0 -149 -151 -296 -251 -243 -57 31 -64 141 -17 258 12 30 11 35
-5 46 -9 7 -17 17 -17 21 0 5 8 1 19 -9 17 -16 19 -15 42 18 21 32 81 75 103
76 5 0 30 -10 54 -21z"/>
<path d="M3494 2669 c-46 -8 -68 -34 -57 -69 19 -61 3 -142 -40 -202 -9 -14
-9 -22 2 -40 7 -12 14 -52 15 -90 2 -54 6 -71 22 -84 10 -8 13 -13 7 -9 -21
10 -15 -16 12 -51 31 -41 101 -67 147 -53 36 10 93 37 117 56 70 53 78 63 79
100 1 21 4 51 8 67 7 34 4 32 -74 -31 -34 -28 -58 -40 -69 -36 -10 4 -14 2
-10 -5 8 -12 -46 -42 -77 -42 -26 0 -41 23 -51 77 -8 50 1 83 21 83 11 0 14 6
9 23 -6 21 -5 21 9 3 15 -18 17 -18 81 -1 89 24 102 35 90 72 -10 28 -12 28
-98 31 l-87 3 0 29 c0 42 30 57 130 63 97 5 155 25 165 57 13 41 -9 48 -166
52 -81 2 -164 0 -185 -3z"/>
<path d="M1629 2654 c-69 -29 -73 -104 -5 -104 l33 0 -5 -132 c-4 -126 -3
-134 17 -152 12 -11 20 -30 20 -45 -1 -25 -2 -25 -8 3 -3 16 -11 31 -17 33
-12 4 -7 -108 7 -144 9 -24 29 -32 29 -12 0 8 4 8 14 0 11 -9 20 -9 34 -2 27
14 32 41 16 86 -7 21 -11 42 -8 46 5 8 49 -8 69 -24 26 -21 155 -102 196 -123
50 -26 108 -31 126 -13 20 20 -45 92 -140 154 -48 32 -90 61 -92 66 -3 4 15
17 39 28 24 12 55 32 69 45 14 13 28 22 30 20 9 -9 45 46 65 99 l21 57 -29 33
c-38 44 -131 88 -196 94 -45 4 -53 2 -57 -14 -4 -14 -5 -14 -6 -2 -1 13 -14
16 -63 18 -41 1 -64 -3 -70 -11 -6 -10 -8 -10 -8 0 0 16 -36 15 -81 -4z m301
-94 c54 -10 90 -33 90 -56 0 -31 -211 -151 -244 -138 -13 5 -16 22 -16 98 0
51 3 96 7 99 10 10 103 8 163 -3z"/>
<path d="M2603 2655 c-41 -17 -45 -55 -9 -88 23 -22 23 -23 11 -92 -15 -84
-13 -271 4 -302 7 -14 17 -20 27 -16 12 4 14 0 9 -20 -6 -21 -1 -32 22 -53 24
-22 34 -25 71 -20 53 7 250 84 272 106 9 9 21 15 27 13 12 -4 22 158 13 199
-3 13 -22 34 -42 47 -36 23 -37 24 -17 40 12 9 24 36 29 60 11 60 -19 94 -107
121 -80 25 -259 28 -310 5z m257 -299 c61 -2 135 -33 135 -56 0 -18 -73 -59
-178 -100 -96 -37 -107 -37 -107 -5 0 17 -6 25 -17 25 -11 0 -14 3 -7 8 6 4
14 33 18 64 6 44 11 56 22 51 8 -3 14 -1 14 5 0 5 11 7 25 4 21 -4 25 0 26 19
0 21 1 21 8 6 5 -15 19 -19 61 -21z"/>
<path d="M3107 2648 c-10 -15 -17 -67 -21 -151 -4 -70 -9 -134 -12 -141 -3 -8
5 -24 18 -36 23 -22 23 -22 1 -16 -21 7 -21 5 -19 -89 1 -83 4 -98 24 -117 28
-28 59 -27 203 8 63 15 115 28 117 29 8 6 -14 38 -32 45 -18 8 -19 9 -2 9 12
1 16 6 12 17 -3 9 -6 19 -6 23 0 4 -25 4 -56 0 -31 -4 -63 -5 -72 -2 -9 4 -13
2 -9 -4 5 -8 -9 -11 -40 -11 -25 0 -42 3 -37 6 5 4 10 52 12 107 1 55 9 138
16 185 14 78 13 88 -3 120 -23 45 -72 54 -94 18z"/>
<path d="M539 2630 c-1 -5 -2 -16 -3 -22 -1 -7 -4 -16 -9 -19 -4 -3 -8 -26 -9
-52 l-2 -46 -43 4 c-37 3 -43 1 -43 -16 0 -20 15 -26 25 -9 10 17 25 11 19 -7
-5 -17 -5 -17 9 0 8 9 17 17 19 17 3 0 5 -36 4 -80 l-1 -80 -40 -1 c-22 -1
-32 -3 -22 -6 9 -2 17 -10 17 -17 0 -10 9 -11 48 -1 50 13 59 27 42 66 -9 21
-9 20 -5 -11 4 -25 3 -31 -4 -20 -11 18 -10 109 2 128 5 6 4 12 -2 12 -6 0 -6
10 0 28 38 119 38 118 18 130 -12 8 -20 8 -20 2z"/>
<path d="M5002 2480 c-17 -7 -22 -15 -17 -30 4 -12 2 -20 -6 -20 -8 0 -9 -3 0
-14 6 -7 14 -34 17 -60 4 -29 12 -46 20 -46 8 0 14 -4 14 -8 0 -5 11 -15 25
-22 14 -8 24 -19 21 -26 -2 -6 4 -21 15 -33 16 -17 17 -21 4 -21 -31 0 -14
-18 21 -22 28 -3 44 2 71 24 20 15 39 26 43 23 4 -2 17 6 29 19 l22 23 -116
109 c-64 60 -122 110 -128 111 -7 1 -22 -2 -35 -7z"/>
<path d="M6298 2385 c-3 -3 -25 -8 -49 -11 -82 -9 -147 -33 -127 -45 7 -5 -51
-9 -133 -9 -123 0 -148 -3 -153 -15 -3 -9 -6 -100 -6 -203 l-1 -187 -49 -46
-50 -46 1 -74 2 -74 7 78 c4 43 12 83 17 88 14 14 55 20 47 7 -5 -7 -2 -9 9
-5 22 8 33 -29 13 -48 -13 -13 -15 -12 -19 12 -3 23 -4 21 -6 -9 0 -21 -5 -38
-10 -38 -5 0 -7 10 -5 23 4 20 4 21 -5 2 -12 -24 -14 -66 -3 -48 4 7 13 9 21
4 11 -7 10 -11 -5 -20 -18 -11 -18 -12 1 -9 13 2 21 12 23 31 2 15 8 25 13 22
12 -8 12 -55 -1 -55 -5 0 -10 -9 -10 -20 0 -11 5 -20 10 -20 6 0 10 -14 10
-32 0 -29 -1 -30 -18 -15 -21 19 -57 22 -67 7 -4 -6 5 -7 23 -4 19 4 32 1 41
-10 19 -23 11 -27 -39 -18 -35 6 -46 12 -51 32 -7 23 -7 23 -8 -6 -1 -30 1
-32 45 -38 68 -9 85 -8 83 7 -1 6 -1 60 0 120 l1 107 167 0 c91 0 164 2 162 4
-2 3 -79 7 -169 10 -162 6 -165 7 -166 29 -3 36 12 45 69 42 28 -2 40 -1 25 2
-24 4 -27 7 -18 24 15 27 60 26 55 -1 -2 -11 0 -20 5 -20 14 0 21 17 14 35 -6
13 -15 16 -43 12 -20 -3 -44 -8 -53 -12 -16 -6 -18 1 -20 66 l-2 74 -5 -79
c-4 -47 -11 -81 -18 -83 -8 -3 -12 34 -12 136 -1 78 2 141 6 141 5 0 6 25 5
55 l-4 54 169 0 c92 0 176 -3 186 -5 9 -3 17 -14 17 -25 0 -10 5 -19 11 -19 7
0 10 12 7 30 -4 30 -4 30 43 30 52 0 79 7 79 21 0 5 -11 4 -24 -1 -24 -9 -36
-5 -36 12 0 4 12 8 28 8 26 1 26 1 8 15 -21 16 -30 18 -38 10z"/>
<path d="M4845 1595 c-308 -305 -581 -576 -608 -601 -42 -40 -46 -47 -32 -60
9 -9 26 -14 42 -11 l28 4 -26 2 c-15 0 -29 7 -32 15 -7 17 55 76 79 76 8 0 13
4 9 9 -3 5 17 32 44 60 37 36 56 48 71 44 11 -3 20 -9 20 -14 0 -5 5 -9 11 -9
5 0 8 4 4 9 -3 6 14 14 37 19 l43 10 -45 2 c-25 1 -52 1 -60 0 -9 -1 -4 10 14
28 17 19 34 28 44 25 11 -5 14 -2 9 9 -3 10 3 24 14 34 16 14 35 17 99 15 83
-2 97 3 55 19 -21 8 -24 15 -22 50 1 29 6 40 18 40 9 0 20 7 23 16 3 8 11 12
17 8 8 -4 7 -9 -2 -15 -9 -6 -2 -8 21 -8 19 0 28 3 20 6 -8 3 -20 12 -27 21
-10 12 -15 13 -28 2 -26 -22 -27 -5 -1 18 17 14 26 17 30 9 2 -7 5 -4 5 6 1 9
8 17 17 17 8 0 30 16 48 36 24 26 39 35 51 30 12 -4 16 -2 12 8 -6 15 39 20
49 5 6 -11 24 -2 24 11 0 5 -7 7 -15 4 -8 -4 -15 -1 -15 6 0 7 -7 10 -15 6
-13 -4 -14 -2 -5 15 6 11 16 16 22 13 7 -5 9 -2 5 9 -4 10 -2 16 6 14 7 -1 11
4 9 11 -1 8 1 11 6 8 5 -3 22 -1 38 4 16 4 21 9 12 9 -10 1 -18 6 -18 12 0 5
5 7 10 4 6 -3 10 -1 10 4 0 18 30 12 37 -6 7 -19 38 -53 49 -53 3 0 1 7 -6 15
-7 8 -9 15 -4 15 5 0 1 5 -8 11 -10 5 -18 16 -18 24 0 8 -8 19 -17 25 -15 8
-14 9 8 6 14 -2 32 0 40 5 12 7 12 9 0 9 -10 0 -11 3 -2 14 9 11 9 15 -1 19
-13 6 98 10 165 7 41 -2 41 -2 27 35 -21 55 -21 104 0 53 9 -23 9 -23 9 3 1
14 7 26 14 26 14 0 18 -87 5 -97 -4 -3 11 -18 34 -33 50 -32 71 -29 113 18 27
30 32 32 44 18 9 -10 27 -14 57 -11 39 3 44 1 44 -17 0 -39 -48 -60 -78 -35
-7 5 -6 3 2 -6 21 -24 86 -11 86 16 0 11 6 20 13 20 9 0 9 2 -1 9 -9 5 -11 17
-6 35 3 15 1 32 -6 41 -17 20 -4 35 33 36 27 0 29 2 12 9 l-20 8 20 7 c11 4
28 10 38 13 15 6 -5 30 -106 130 -68 67 -128 122 -133 122 -5 0 -261 -250
-569 -555z"/>
<path d="M1445 1865 c-45 -21 -94 -61 -134 -110 -7 -9 -14 -36 -15 -60 -1 -69
45 -107 183 -150 16 -5 21 -4 17 4 -10 15 4 14 23 -2 15 -13 111 -43 156 -49
11 -2 20 -9 20 -15 0 -7 6 -18 13 -24 16 -17 15 -35 -4 -64 -15 -23 -15 -25 0
-31 9 -3 16 -10 16 -15 0 -6 -9 -5 -21 1 -16 9 -23 8 -32 -2 -7 -8 -34 -25
-60 -39 -41 -21 -49 -22 -58 -9 -9 13 -10 12 -5 -2 4 -14 0 -18 -19 -18 -18 0
-23 -4 -19 -15 5 -11 2 -13 -10 -9 -9 4 -15 9 -12 12 3 2 -5 13 -19 23 -13 11
-29 36 -35 57 -7 20 -16 41 -20 45 -15 16 -48 -4 -64 -38 -28 -59 2 -128 71
-164 29 -15 73 -14 73 2 0 8 3 8 9 -2 13 -20 93 -7 156 24 73 36 142 99 129
116 -6 8 -16 40 -23 71 -18 85 2 134 27 65 14 -38 15 -63 2 -32 -7 17 -9 14
-9 -13 -2 -104 113 -201 222 -189 56 7 62 11 52 27 -6 9 -10 9 -16 -1 -7 -11
-9 -10 -9 4 0 9 4 17 9 17 19 0 41 -32 41 -60 0 -45 10 -60 39 -60 l26 0 -25
13 c-21 11 -25 20 -26 60 -1 42 1 47 20 47 32 0 101 55 120 94 9 19 15 49 15
68 -2 42 9 213 17 254 7 39 -6 66 -47 94 -31 23 -161 60 -208 60 -30 0 -86
-34 -86 -52 0 -7 -7 -13 -15 -13 -17 0 -82 -103 -74 -116 3 -5 1 -9 -5 -9 -5
0 -17 -26 -26 -57 -9 -32 -18 -66 -21 -75 -7 -25 -28 -23 -21 2 3 13 -3 24
-19 34 -35 24 -153 66 -214 78 -125 23 -140 59 -54 131 32 27 67 9 88 -46 17
-45 46 -71 46 -42 0 8 5 15 11 15 5 0 8 -4 4 -9 -12 -21 13 -19 33 2 19 20 20
27 11 62 -21 77 -85 136 -146 134 -15 0 -50 -11 -78 -24z m684 -134 c44 -31
61 -63 65 -122 1 -31 7 -62 11 -69 5 -9 4 -11 -3 -6 -13 8 -28 -37 -17 -53 3
-6 0 -11 -7 -11 -18 0 -43 -40 -40 -65 2 -17 1 -17 -8 -5 -8 13 -16 9 -48 -25
-39 -41 -46 -43 -127 -30 -26 4 -34 13 -50 52 -19 45 -20 56 -9 113 17 92 18
89 -7 99 -23 9 -23 10 -2 10 12 1 23 -5 26 -11 2 -7 10 0 18 17 22 50 71 107
103 121 34 15 59 11 95 -15z"/>
<path d="M2963 1868 c-6 -7 -16 -42 -23 -78 -6 -36 -19 -78 -27 -94 -11 -21
-12 -31 -4 -34 6 -2 11 -8 11 -13 0 -4 -6 -6 -13 -3 -16 6 -48 -69 -49 -116
-1 -28 -18 -57 -18 -30 0 6 -4 8 -10 5 -18 -11 -11 -35 10 -35 11 0 20 -5 20
-11 0 -7 -11 -9 -29 -6 -17 4 -31 2 -33 -4 -2 -6 -23 40 -48 103 -94 244 -118
280 -174 259 -20 -8 -26 -17 -26 -40 0 -26 38 -136 75 -216 l14 -30 0 27 c1
14 -5 29 -11 31 -8 3 -6 6 4 6 19 1 34 -54 24 -87 -5 -13 -1 -22 11 -26 12 -5
14 -9 6 -14 -12 -8 36 -136 68 -179 18 -26 62 -45 84 -37 20 8 69 110 61 129
-3 9 -2 13 4 10 5 -3 14 3 19 14 15 26 14 27 -11 51 -12 11 -17 20 -11 20 7 0
19 -7 27 -16 15 -14 17 -13 25 8 5 13 27 68 49 123 57 145 58 149 22 178 -16
14 -26 27 -22 29 4 2 14 17 23 35 12 22 14 34 6 42 -15 15 -42 14 -54 -1z"/>
<path d="M3115 1854 c-62 -9 -76 -15 -87 -39 -9 -21 -8 -28 7 -45 10 -11 24
-20 32 -20 7 0 22 -9 33 -20 21 -21 27 -35 10 -25 -18 11 -12 -96 7 -117 9
-10 11 -18 5 -18 -6 0 -13 6 -15 13 -3 6 -7 -4 -8 -23 -2 -19 -4 -46 -5 -60
-1 -14 -3 -54 -3 -90 -1 -61 -3 -66 -31 -82 -35 -20 -42 -58 -10 -58 11 0 20
-4 20 -10 0 -5 5 -10 11 -10 5 0 7 5 3 11 -5 8 0 10 17 6 13 -3 48 -9 78 -13
41 -5 52 -4 47 5 -6 8 -2 11 10 9 15 -2 18 2 16 22 -1 14 -4 33 -5 43 -1 11
-10 17 -24 17 -21 0 -23 5 -24 58 -1 31 -1 59 -1 62 0 3 4 71 8 150 l7 144 33
32 c28 28 30 35 18 45 -16 13 -98 20 -149 13z"/>
<path d="M3950 1831 c-19 -11 -44 -24 -55 -29 -32 -15 -97 -92 -91 -107 3 -9
0 -12 -8 -9 -23 9 -77 -126 -83 -208 -4 -64 -2 -78 20 -118 60 -108 173 -132
289 -60 50 31 52 30 62 -12 7 -31 48 -48 75 -31 14 9 15 31 12 154 l-3 145 43
19 c29 13 45 27 47 41 5 37 -23 48 -134 50 -86 2 -104 0 -104 -12 0 -9 -7 -14
-17 -12 -12 2 -19 -5 -21 -20 -4 -29 12 -49 54 -67 28 -12 32 -18 35 -58 2
-25 2 -44 0 -41 -2 2 -19 -10 -38 -26 -80 -71 -153 -88 -194 -44 -33 36 -31
113 5 188 27 55 134 166 161 166 18 0 24 20 13 49 -5 15 -5 28 2 35 9 9 14
-14 13 -61 0 -6 13 -17 28 -24 25 -10 32 -9 49 6 27 25 25 50 -7 80 -35 31
-101 34 -153 6z"/>
<path d="M2306 1818 c-10 -16 -16 -60 -18 -145 -2 -68 -6 -123 -9 -123 -9 0
-12 -201 -4 -233 4 -14 16 -28 28 -32 21 -6 21 -6 3 -14 -18 -7 -16 -9 14 -19
18 -7 36 -9 39 -5 3 5 22 9 41 10 19 1 36 6 38 12 2 6 7 9 12 6 16 -10 151 19
146 31 -3 7 4 9 18 7 12 -3 32 4 46 15 22 18 23 21 10 52 l-13 32 -58 -6 c-41
-4 -59 -2 -62 7 -3 7 -6 5 -6 -5 -1 -13 -14 -17 -68 -20 -38 -2 -79 0 -93 3
-15 5 -18 8 -7 8 13 1 17 11 18 49 1 26 3 61 5 77 4 34 14 166 17 236 1 27 -4
53 -12 63 -20 24 -68 21 -85 -6z"/>
<path d="M3646 1828 c-13 -7 -16 -33 -17 -146 0 -75 -4 -157 -7 -181 l-7 -43
-35 43 c-19 24 -42 53 -50 63 -8 10 -26 33 -40 50 -14 17 -38 48 -54 69 -20
27 -34 37 -47 34 -10 -3 -20 2 -23 10 -4 11 -1 13 15 8 20 -7 20 -6 3 20 -25
38 -80 61 -102 43 -29 -22 -31 -31 -27 -88 3 -30 7 -129 9 -220 3 -171 11
-210 44 -210 10 0 28 7 41 17 23 16 24 18 18 145 -3 70 -4 128 -1 128 10 0 43
-44 44 -57 0 -7 4 -13 9 -13 5 0 35 -33 66 -72 77 -97 136 -158 147 -152 4 3
8 -2 8 -10 0 -9 4 -16 10 -16 5 0 7 8 4 18 -5 14 -3 14 11 -3 12 -14 19 -16
22 -7 3 6 11 12 18 12 8 0 16 8 20 19 7 23 -13 70 -29 67 -6 -2 -7 -1 -3 2 9
5 -2 72 -15 89 -5 7 -5 13 0 17 5 3 12 26 16 52 3 25 15 67 27 92 16 36 21 65
20 121 -1 41 -6 80 -12 87 -13 15 -64 23 -83 12z"/>
<path d="M5355 1664 c-27 -20 -52 -41 -54 -47 -2 -7 4 -5 14 3 13 10 19 11 22
4 2 -7 13 -10 23 -7 11 3 17 9 15 14 -3 4 -13 6 -23 3 -9 -3 -3 6 13 20 17 14
33 26 38 26 4 0 7 -38 7 -85 0 -78 -2 -85 -20 -85 -17 0 -20 7 -22 48 l-1 47
-7 -50 -6 -50 -5 50 -5 50 -2 -47 c-1 -34 -6 -48 -16 -48 -11 0 -16 14 -19 48
l-3 47 -2 -47 c-2 -35 -6 -48 -19 -51 -16 -4 -16 -5 -1 -6 12 -1 18 -12 21
-38 l4 -38 1 35 c2 35 3 36 50 38 l48 2 -3 -43 -2 -42 13 45 c11 36 15 41 21
26 7 -16 9 -16 17 -2 5 9 18 16 29 16 19 0 19 -5 14 -86 -4 -57 -2 -83 5 -79
6 4 9 57 8 138 -1 73 -3 111 -5 85 l-4 -48 -40 0 -39 0 0 92 0 92 40 -39 c22
-21 40 -36 40 -31 0 12 -71 76 -84 75 -6 0 -33 -16 -61 -35z"/>
<path d="M6040 1534 c-29 -28 -32 -29 -71 -8 -17 8 -33 14 -35 12 -2 -2 27
-21 65 -41 l68 -37 -28 -57 c-16 -32 -29 -64 -29 -71 0 -7 -5 -10 -12 -6 -7 4
-8 3 -4 -5 4 -6 11 -9 16 -6 4 2 19 -4 33 -16 l26 -20 66 51 c36 29 65 55 65
60 0 4 -14 24 -30 45 -17 21 -28 41 -24 44 3 3 18 -10 34 -28 28 -35 28 -35
55 -17 15 10 24 20 21 23 -3 4 -14 -1 -25 -11 -18 -16 -20 -15 -45 14 -14 18
-23 37 -19 43 4 7 -1 5 -11 -3 -17 -13 -21 -11 -50 23 -17 20 -33 37 -36 36
-3 0 -16 -11 -30 -25z"/>
<path d="M3274 794 c-99 -81 -190 -156 -204 -168 -14 -11 -58 -47 -98 -80 -40
-32 -70 -61 -68 -63 3 -3 17 7 33 21 15 14 31 26 35 26 3 0 14 7 22 16 12 12
16 12 17 2 0 -7 4 -4 8 7 5 11 13 21 20 21 6 1 16 2 21 3 6 0 15 13 20 27 6
14 14 23 18 20 10 -6 82 41 82 53 0 10 51 35 68 32 6 -1 12 2 12 7 0 14 59 36
88 34 13 -1 30 -9 38 -17 12 -11 20 -12 35 -5 15 8 19 7 19 -5 0 -8 2 -15 4
-15 2 0 12 -3 22 -7 11 -4 15 -3 11 4 -9 15 20 10 36 -6 9 -10 8 -11 -8 -6
-16 4 -15 3 3 -6 36 -20 26 -32 -20 -25 -29 5 -40 4 -33 -3 6 -5 31 -11 58
-12 29 -2 47 -7 47 -15 0 -6 7 -14 15 -18 8 -3 15 -17 15 -31 0 -14 6 -25 13
-25 7 0 21 -9 30 -21 36 -41 26 -10 -36 122 -35 74 -78 167 -97 207 -18 39
-36 72 -40 72 -4 0 -88 -66 -186 -146z"/>
<path d="M2094 563 c-38 -48 -150 -189 -250 -313 -99 -124 -184 -231 -188
-238 -6 -9 4 -12 43 -11 27 1 50 5 49 8 -2 23 4 41 12 36 6 -3 10 4 10 18 0
13 9 34 20 47 11 13 20 29 20 37 0 16 47 36 66 29 8 -3 16 -1 19 4 4 6 -6 10
-22 11 -22 0 -24 2 -10 8 10 4 18 11 18 16 -1 21 11 45 20 40 5 -4 9 3 9 14 0
17 6 21 34 21 19 0 41 2 48 5 11 5 13 -7 10 -58 -3 -49 -1 -66 12 -76 14 -12
16 -11 17 5 2 28 -2 76 -6 99 -3 11 -2 14 1 8 3 -7 22 -13 42 -12 29 0 33 2
17 8 -12 5 11 8 58 7 42 -1 77 1 77 4 0 13 -58 25 -94 19 -30 -5 -43 -2 -57
12 -21 21 -26 11 -6 -10 10 -12 8 -13 -8 -7 -10 4 -38 10 -62 13 -23 3 -40 10
-37 14 3 5 10 7 15 4 5 -4 9 4 9 16 0 17 5 20 25 17 24 -5 32 9 26 44 -2 12
35 3 54 -12 16 -14 17 -13 11 8 -6 19 -4 22 21 23 24 0 25 1 8 9 -19 7 -18 9
8 19 36 14 97 14 97 0 0 -6 7 -8 16 -5 14 5 15 4 4 -9 -9 -11 -9 -15 -1 -15 7
0 9 -4 6 -10 -3 -5 0 -11 7 -11 7 -1 23 -3 35 -4 13 -1 32 -13 43 -26 15 -18
14 -13 -5 21 -37 66 -144 233 -159 248 -11 12 -25 -1 -82 -75z"/>
</g>
</svg>
